<?xml version="1.0" encoding="iso-8859-1"?>
<!-- Generator: Adobe Illustrator 18.0.0, SVG Export Plug-In . SVG Version: 6.00 Build 0)  -->
<!DOCTYPE svg PUBLIC "-//W3C//DTD SVG 1.1//EN" "http://www.w3.org/Graphics/SVG/1.1/DTD/svg11.dtd">
<svg xmlns="http://www.w3.org/2000/svg" xmlns:xlink="http://www.w3.org/1999/xlink" version="1.1" id="Capa_1" x="0px" y="0px" viewBox="0 0 321.915 321.915" style="enable-background:new 0 0 321.915 321.915;" xml:space="preserve" width="512px" height="512px">
<g>
	<path d="M273.438,199.089c0-10.549-7.363-19.402-17.219-21.709c1.439-3.131,2.249-6.609,2.249-10.275   c0-12.862-9.889-23.458-22.463-24.583c1.3-3,2.021-6.308,2.021-9.78c0-14.792-8.449-23.494-15.238-30.485   c-8.497-8.751-14.637-15.074-9.275-32.306c5.364-17.241,3.884-32.017-4.4-43.916C192.623,2.347,155.087,0.096,153.498,0.012   c-3.587-0.202-6.818,2.201-7.68,5.697c-0.86,3.496,0.886,7.11,4.159,8.61c10.352,4.744,16.623,13.132,16.365,21.891   c-0.269,9.122-7.835,17.237-20.76,22.264c-37.126,14.438-37.64,35.431-37.221,40.292c0.051,3.293,0.751,6.432,1.976,9.294h-1.768   c-13.609,0-24.682,11.072-24.682,24.682c0,3.473,0.721,6.78,2.021,9.78c-12.574,1.126-22.462,11.721-22.462,24.583   c0,3.666,0.81,7.145,2.249,10.275c-9.855,2.307-17.219,11.16-17.219,21.709c0,11.08,8.124,20.293,18.728,22.009l11.636,94.236   c0.464,3.759,3.656,6.581,7.443,6.581h149.348c3.787,0,6.98-2.822,7.443-6.581l11.636-94.236   C265.314,219.383,273.438,210.169,273.438,199.089z M88.128,157.423h20.441c4.143,0,7.5-3.357,7.5-7.5c0-4.143-3.357-7.5-7.5-7.5   c-5.339,0-9.682-4.343-9.682-9.682s4.343-9.682,9.682-9.682h49.118c4.143,0,7.5-3.357,7.5-7.5c0-4.143-3.357-7.5-7.5-7.5h-24.647   c-5.339,0-9.682-4.344-9.682-9.684c0-0.605,0.036-0.731-0.092-1.241c-0.037-1.413,0.435-14.058,27.753-24.681   c18.813-7.316,29.862-20.366,30.315-35.804c0.163-5.536-1.065-10.92-3.492-15.874c7.262,2.934,14.443,7.322,18.981,13.861   c5.559,8.011,6.332,18.104,2.365,30.856c-8.009,25.742,3.549,37.646,12.836,47.211c6.145,6.329,11,11.328,11,20.036   c0,5.261-4.219,9.545-9.45,9.67h-61.455c-4.143,0-7.5,3.357-7.5,7.5c0,4.143,3.357,7.5,7.5,7.5l81.666,0.012   c5.339,0,9.682,4.343,9.682,9.682c0,5.34-4.343,9.684-9.682,9.684H88.128c-5.339,0-9.682-4.344-9.682-9.684   C78.447,161.766,82.79,157.423,88.128,157.423z M229.001,306.915H92.915l-10.561-85.527H239.56L229.001,306.915z M251.137,206.388   H70.778c-4.025,0-7.301-3.274-7.301-7.299c0-4.025,3.275-7.301,7.301-7.301h17.351h163.009c4.025,0,7.301,3.275,7.301,7.301   C258.438,203.113,255.163,206.388,251.137,206.388z" fill="#FFFFFF"/>
</g>
<g>
</g>
<g>
</g>
<g>
</g>
<g>
</g>
<g>
</g>
<g>
</g>
<g>
</g>
<g>
</g>
<g>
</g>
<g>
</g>
<g>
</g>
<g>
</g>
<g>
</g>
<g>
</g>
<g>
</g>
</svg>
