<?xml version="1.0" encoding="iso-8859-1"?>
<!-- Generator: Adobe Illustrator 19.0.0, SVG Export Plug-In . SVG Version: 6.00 Build 0)  -->
<svg xmlns="http://www.w3.org/2000/svg" xmlns:xlink="http://www.w3.org/1999/xlink" version="1.1" id="Capa_1" x="0px" y="0px" viewBox="0 0 496.002 496.002" style="enable-background:new 0 0 496.002 496.002;" xml:space="preserve" width="512px" height="512px">
<g>
	<g>
		<path d="M448.005,88.002h-112v-80c0-3.232-1.944-6.152-4.936-7.392c-2.992-1.24-6.432-0.552-8.72,1.728l-11.368,11.368    l-18.536-12.36c-2.688-1.792-6.184-1.792-8.872,0l-19.56,13.04l-19.568-13.04c-2.688-1.792-6.184-1.792-8.872,0l-19.552,13.04    l-19.56-13.04c-2.688-1.792-6.184-1.792-8.872,0l-19.568,13.04l-19.56-13.04c-2.688-1.792-6.184-1.792-8.872,0l-19.56,13.04    l-19.552-13.04c-2.688-1.792-6.184-1.792-8.872,0l-19.56,13.04L52.477,1.346c-2.688-1.792-6.184-1.792-8.872,0l-18.584,12.36    l-11.36-11.36c-2.288-2.288-5.72-2.968-8.72-1.736C1.949,1.85,0.005,4.77,0.005,8.002v440c0,26.472,21.528,48,48,48h320    c26.472,0,48-21.528,48-48V316.946l20.424,10.208c1.128,0.568,2.36,0.848,3.576,0.848c1.552,0,3.104-0.456,4.44-1.344l19.56-13.04    l19.56,13.04c2.456,1.648,5.616,1.792,8.208,0.4c2.6-1.392,4.224-4.104,4.224-7.056v-184    C496.005,109.53,474.477,88.002,448.005,88.002z M48.005,479.994v0.008c-17.648,0-32-14.352-32-32V27.314l2.344,2.344    c2.696,2.696,6.928,3.104,10.096,1l19.552-13.04l19.568,13.04c2.688,1.792,6.184,1.792,8.872,0l19.56-13.04l19.552,13.04    c2.688,1.792,6.184,1.792,8.872,0l19.56-13.04l19.56,13.04c2.688,1.792,6.192,1.792,8.872,0l19.568-13.04l19.56,13.04    c2.688,1.792,6.184,1.792,8.872,0l19.552-13.04l19.568,13.04c2.688,1.792,6.184,1.792,8.872,0l19.56-13.04l19.552,13.04    c3.168,2.112,7.4,1.696,10.096-0.992l2.352-2.352v68.688v352c0,2.904,0.304,5.728,0.8,8.488c0.04,0.232,0.064,0.48,0.112,0.712    c0.512,2.624,1.264,5.144,2.184,7.6c0.12,0.328,0.232,0.656,0.36,0.984c0.952,2.368,2.088,4.624,3.384,6.784    c0.208,0.344,0.408,0.68,0.616,1.016c1.336,2.104,2.824,4.096,4.456,5.96c0.12,0.144,0.216,0.312,0.336,0.448H48.005z     M411.917,104.45c-1.632,1.864-3.12,3.856-4.456,5.96c-0.216,0.336-0.416,0.672-0.616,1.016c-1.296,2.16-2.44,4.424-3.384,6.784    c-0.128,0.328-0.24,0.656-0.36,0.984c-0.92,2.448-1.672,4.976-2.184,7.6c-0.048,0.232-0.064,0.472-0.112,0.712    c-0.496,2.76-0.8,5.592-0.8,8.488v168v144.008h0c0,17.648-14.352,32-32,32s-32-14.352-32-32v-344h76.248    C412.125,104.138,412.037,104.314,411.917,104.45z M480.005,305.05l-11.56-7.704c-2.688-1.792-6.184-1.792-8.872,0l-20.144,13.424    l-23.424-11.712V136.002c0-17.648,14.352-32,32-32s32,14.352,32,32V305.05z" fill="#FFFFFF"/>
	</g>
</g>
<g>
	<g>
		<path d="M168.005,48.002c-30.872,0-56,25.12-56,56s25.128,56,56,56s56-25.12,56-56S198.877,48.002,168.005,48.002z     M168.005,144.002c-22.056,0-40-17.944-40-40c0-22.056,17.944-40,40-40c22.056,0,40,17.944,40,40    C208.005,126.058,190.061,144.002,168.005,144.002z" fill="#FFFFFF"/>
	</g>
</g>
<g>
	<g>
		<rect x="112.005" y="176.002" width="120" height="16" fill="#FFFFFF"/>
	</g>
</g>
<g>
	<g>
		<rect x="96.005" y="208.002" width="152" height="16" fill="#FFFFFF"/>
	</g>
</g>
<g>
	<g>
		<rect x="48.005" y="264.002" width="144" height="16" fill="#FFFFFF"/>
	</g>
</g>
<g>
	<g>
		<rect x="256.005" y="264.002" width="32" height="16" fill="#FFFFFF"/>
	</g>
</g>
<g>
	<g>
		<rect x="48.005" y="304.002" width="144" height="16" fill="#FFFFFF"/>
	</g>
</g>
<g>
	<g>
		<rect x="256.005" y="304.002" width="32" height="16" fill="#FFFFFF"/>
	</g>
</g>
<g>
	<g>
		<rect x="48.005" y="344.002" width="144" height="16" fill="#FFFFFF"/>
	</g>
</g>
<g>
	<g>
		<rect x="256.005" y="344.002" width="32" height="16" fill="#FFFFFF"/>
	</g>
</g>
<g>
	<g>
		<rect x="48.005" y="384.002" width="144" height="16" fill="#FFFFFF"/>
	</g>
</g>
<g>
	<g>
		<rect x="256.005" y="384.002" width="32" height="16" fill="#FFFFFF"/>
	</g>
</g>
<g>
	<g>
		<rect x="48.005" y="424.002" width="144" height="16" fill="#FFFFFF"/>
	</g>
</g>
<g>
	<g>
		<rect x="256.005" y="424.002" width="32" height="16" fill="#FFFFFF"/>
	</g>
</g>
<g>
</g>
<g>
</g>
<g>
</g>
<g>
</g>
<g>
</g>
<g>
</g>
<g>
</g>
<g>
</g>
<g>
</g>
<g>
</g>
<g>
</g>
<g>
</g>
<g>
</g>
<g>
</g>
<g>
</g>
</svg>
