<?xml version="1.0" encoding="iso-8859-1"?>
<!-- Generator: Adobe Illustrator 19.0.0, SVG Export Plug-In . SVG Version: 6.00 Build 0)  -->
<svg version="1.1" id="Capa_1" xmlns="http://www.w3.org/2000/svg" xmlns:xlink="http://www.w3.org/1999/xlink" x="0px" y="0px"
	 viewBox="0 0 512.002 512.002" style="enable-background:new 0 0 512.002 512.002;" xml:space="preserve">
<g>
	<g>
		<path d="M433.067,293.02c-1.621-1.835-3.951-2.884-6.4-2.884H85.334c-2.449,0-4.779,1.05-6.391,2.884
			c-1.621,1.835-2.381,4.275-2.074,6.707l25.6,204.8c0.529,4.275,4.164,7.475,8.465,7.475h290.133c4.301,0,7.936-3.2,8.474-7.475
			l25.6-204.8C435.44,297.295,434.689,294.855,433.067,293.02z M393.532,494.936H118.469L95.002,307.202h321.997L393.532,494.936z"
			/>
	</g>
</g>
<g>
	<g>
		<path d="M443.734,256.002H68.267c-4.71,0-8.533,3.823-8.533,8.533v34.133c0,4.71,3.823,8.533,8.533,8.533h375.467
			c4.71,0,8.533-3.823,8.533-8.533v-34.133C452.267,259.825,448.444,256.002,443.734,256.002z M435.201,290.136h-358.4v-17.067
			h358.4V290.136z"/>
	</g>
</g>
<g>
	<g>
		<path d="M460.801,204.802h-409.6c-4.71,0-8.533,3.823-8.533,8.533v51.2c0,4.71,3.823,8.533,8.533,8.533h409.6
			c4.71,0,8.533-3.823,8.533-8.533v-51.2C469.334,208.625,465.511,204.802,460.801,204.802z M452.267,256.002H59.734v-34.133
			h392.533V256.002z"/>
	</g>
</g>
<g>
	<g>
		<path d="M145.067,392.536H128c-4.71,0-8.533,3.823-8.533,8.533c0,4.71,3.823,8.533,8.533,8.533h17.067
			c4.71,0,8.533-3.823,8.533-8.533C153.6,396.359,149.778,392.536,145.067,392.536z"/>
	</g>
</g>
<g>
	<g>
		<path d="M196.267,392.536H179.2c-4.71,0-8.533,3.823-8.533,8.533c0,4.71,3.823,8.533,8.533,8.533h17.067
			c4.71,0,8.533-3.823,8.533-8.533C204.8,396.359,200.978,392.536,196.267,392.536z"/>
	</g>
</g>
<g>
	<g>
		<path d="M432.368,130.341c1.903-5.205,1.681-9.796,0.853-13.303c-2.901-12.262-15.693-20.975-25.711-26.052
			c6.391-7.996,9.899-17.084,10.453-27.136c1.741-31.3-26.718-60.134-27.93-61.346c-2.441-2.449-6.118-3.174-9.301-1.852
			c-3.183,1.323-5.265,4.437-5.265,7.885c0,5.538-1.903,9.839-5.99,13.542c-15.531,14.071-55.757,13.491-70.81,12.058
			c-81.024,0-102.921,21.623-108.792,34.227c-58.812,1.826-73.813,28.783-77.636,42.82c-18.116,1.254-31.94,7.39-41.156,18.27
			C57.25,145.778,59.17,166.975,59.734,171.31c0.521,30.148,37.274,48.87,38.852,49.664c1.178,0.589,2.492,0.896,3.814,0.896h307.2
			c40.499,0,51.2-33.493,51.2-51.2C460.801,146.161,446.081,134.752,432.368,130.341z M409.601,204.802H104.577
			c-6.187-3.533-27.776-17.109-27.776-34.133c0-0.469-0.034-0.939-0.119-1.399c-0.026-0.171-2.509-17.058,7.424-28.783
			c7.014-8.286,18.918-12.484,35.362-12.484c4.71,0,8.533-3.823,8.533-8.533c0-0.341,0.777-34.133,68.267-34.133
			c4.71,0,8.516-3.336,8.516-8.047c0.913-7.253,19.576-26.086,93.039-26.138c5.982,0.597,59.179,5.222,83.098-16.418
			c2.731-2.475,5.001-5.222,6.784-8.218c6.596,9.387,13.978,23.049,13.218,36.437c-0.538,9.352-5.018,17.289-13.722,24.252
			c-2.441,1.954-3.61,5.086-3.063,8.158c0.546,3.063,2.731,5.598,5.692,6.596c9.771,3.285,25.045,11.597,26.786,19.004
			c0.239,1.007,0.956,4.07-4.514,9.54c-2.423,2.423-3.14,6.067-1.843,9.25c1.297,3.183,4.403,5.282,7.834,5.316
			c4.284,0.051,25.643,1.51,25.643,25.6C443.734,172.06,443.35,204.802,409.601,204.802z"/>
	</g>
</g>
<g>
	<g>
		<path d="M164.199,136.792c-28.757-7.194-36.864-20.745-37.171-21.274c-2.142-4.113-7.194-5.777-11.383-3.686
			c-4.215,2.108-5.922,7.236-3.814,11.452c1.058,2.108,11.358,20.838,48.23,30.063c0.7,0.179,1.391,0.256,2.082,0.256
			c3.823,0,7.296-2.586,8.269-6.46C171.546,142.569,168.773,137.935,164.199,136.792z"/>
	</g>
</g>
<g>
	<g>
		<path d="M238.934,93.869c-20.608,0-35.43-21.606-35.584-21.82c-2.611-3.908-7.91-4.966-11.819-2.347
			c-3.917,2.611-4.975,7.919-2.364,11.836c0.802,1.195,19.942,29.397,49.766,29.397c4.71,0,8.533-3.823,8.533-8.533
			C247.467,97.692,243.644,93.869,238.934,93.869z"/>
	</g>
</g>
<g>
	<g>
		<path d="M424.159,130.503c-3.337-3.336-8.73-3.336-12.066,0c-5.077,5.077-15.394,10.112-30.686,14.967
			c-4.489,1.434-6.972,6.229-5.547,10.718c1.161,3.635,4.514,5.956,8.132,5.956c0.862,0,1.732-0.136,2.577-0.41
			c18.423-5.854,30.37-11.938,37.589-19.166C427.495,139.232,427.495,133.839,424.159,130.503z"/>
	</g>
</g>
<g>
	<g>
		<path d="M398.567,87.836c-3.337-3.337-8.73-3.337-12.066,0c-0.145,0.145-14.822,14.566-36.634,14.566
			c-4.71,0-8.533,3.823-8.533,8.533c0,4.71,3.823,8.533,8.533,8.533c28.8,0,47.898-18.765,48.7-19.567
			C401.904,96.566,401.904,91.173,398.567,87.836z"/>
	</g>
</g>
<g>
	<g>
		<path d="M426.667,344.22c-1.621-1.835-3.951-2.884-6.4-2.884h-70.4c-4.71,0-8.533,3.823-8.533,8.533v102.4
			c0,4.71,3.823,8.533,8.533,8.533h57.6c4.301,0,7.936-3.2,8.474-7.475l12.8-102.4C429.04,348.495,428.289,346.055,426.667,344.22z
			 M399.933,443.736h-41.532v-85.333h52.198L399.933,443.736z"/>
	</g>
</g>
<g>
	<g>
		<path d="M221.867,341.336H91.734c-2.449,0-4.779,1.05-6.4,2.884c-1.613,1.835-2.372,4.275-2.065,6.707l12.8,102.4
			c0.529,4.275,4.164,7.475,8.465,7.475h117.333c4.71,0,8.533-3.823,8.533-8.533v-102.4
			C230.401,345.159,226.578,341.336,221.867,341.336z M213.334,443.736H112.069l-10.667-85.333h111.932V443.736z"/>
	</g>
</g>
<g>
</g>
<g>
</g>
<g>
</g>
<g>
</g>
<g>
</g>
<g>
</g>
<g>
</g>
<g>
</g>
<g>
</g>
<g>
</g>
<g>
</g>
<g>
</g>
<g>
</g>
<g>
</g>
<g>
</g>
</svg>
