<?xml version="1.0" encoding="iso-8859-1"?>
<!-- Generator: Adobe Illustrator 19.0.0, SVG Export Plug-In . SVG Version: 6.00 Build 0)  -->
<svg version="1.1" id="Capa_1" xmlns="http://www.w3.org/2000/svg" xmlns:xlink="http://www.w3.org/1999/xlink" x="0px" y="0px"
	 viewBox="0 0 512 512" style="enable-background:new 0 0 512 512;" xml:space="preserve">
<polygon style="fill:#71C3A9;" points="406.069,512 105.931,512 79.448,300.138 432.552,300.138 "/>
<g>
	<polygon style="fill:#E7ECED;" points="425.931,353.103 353.103,353.103 353.103,459.034 412.69,459.034 	"/>
	<polygon style="fill:#E7ECED;" points="99.31,459.034 220.69,459.034 220.69,353.103 86.069,353.103 	"/>
</g>
<rect x="61.793" y="256" style="fill:#52937E;" width="388.41" height="44.14"/>
<rect x="44.14" y="211.86" style="fill:#71C3A9;" width="423.72" height="52.966"/>
<g>
	<path style="fill:#CB465F;" d="M141.241,414.897h-17.655c-4.873,0-8.828-3.955-8.828-8.828s3.955-8.828,8.828-8.828h17.655
		c4.873,0,8.828,3.955,8.828,8.828S146.114,414.897,141.241,414.897z"/>
	<path style="fill:#CB465F;" d="M194.207,414.897h-17.655c-4.873,0-8.828-3.955-8.828-8.828s3.955-8.828,8.828-8.828h17.655
		c4.873,0,8.828,3.955,8.828,8.828S199.08,414.897,194.207,414.897z"/>
	<path style="fill:#CB465F;" d="M423.724,132.414c26.483-26.483-26.483-44.138-26.483-44.138C441.379,52.966,388.414,0,388.414,0
		c0,44.138-88.276,35.31-88.276,35.31c-105.931,0-105.931,35.31-105.931,35.31c-79.448,0-79.448,44.138-79.448,44.138
		c-61.793,0-52.966,52.966-52.966,52.966c0,26.483,35.31,44.138,35.31,44.138h317.793c44.138,0,44.138-44.138,44.138-44.138
		C459.034,132.414,423.724,132.414,423.724,132.414z"/>
</g>
<g>
	<path style="fill:#F4879F;" d="M158.905,150.069c-0.715,0-1.43-0.079-2.154-0.265c-38.144-9.543-48.799-28.919-49.894-31.1
		c-2.18-4.361-0.415-9.666,3.946-11.847c4.334-2.163,9.56-0.441,11.776,3.814c0.318,0.547,8.704,14.566,38.453,22.007
		c4.732,1.183,7.601,5.976,6.426,10.708C166.453,147.394,162.86,150.069,158.905,150.069z"/>
	<path style="fill:#F4879F;" d="M238.345,105.931c-30.852,0-50.653-29.175-51.482-30.411c-2.701-4.052-1.607-9.543,2.445-12.244
		c4.043-2.71,9.525-1.615,12.226,2.428l0,0c0.159,0.221,15.492,22.572,36.811,22.572c4.873,0,8.828,3.955,8.828,8.828
		S243.218,105.931,238.345,105.931z"/>
	<path style="fill:#F4879F;" d="M388.405,158.897c-3.743,0-7.212-2.401-8.413-6.162c-1.474-4.643,1.095-9.604,5.738-11.087
		c15.819-5.023,26.492-10.231,31.744-15.484c3.452-3.452,9.031-3.452,12.482,0c3.452,3.452,3.452,9.031,0,12.482
		c-7.468,7.477-19.827,13.771-38.885,19.827C390.197,158.764,389.297,158.897,388.405,158.897z"/>
	<path style="fill:#F4879F;" d="M353.103,114.759c-4.873,0-8.828-3.955-8.828-8.828s3.955-8.828,8.828-8.828
		c22.563,0,37.747-14.919,37.897-15.069c3.452-3.452,9.031-3.452,12.482,0c3.452,3.452,3.452,9.031,0,12.482
		C402.653,95.347,382.897,114.759,353.103,114.759z"/>
</g>
<g>
</g>
<g>
</g>
<g>
</g>
<g>
</g>
<g>
</g>
<g>
</g>
<g>
</g>
<g>
</g>
<g>
</g>
<g>
</g>
<g>
</g>
<g>
</g>
<g>
</g>
<g>
</g>
<g>
</g>
</svg>
